PathFileType	4	(X/Y/Z)	54_1_31_p1_0-344.trc
DataRate	CameraRate	NumFrames	NumMarkers	Units	OrigDataRate	OrigDataStartFrame	OrigNumFrames
59.0	59.0	4	27	m	59.0	0	345
Frame#	Time	RHip			RKnee			RAnkle			RBigToe			RSmallToe			RHeel			LHip			LKnee			LAnkle			LBigToe			LSmallToe			LHeel			Neck			Head			Nose			RShoulder			RElbow			RWrist			RThumb			RIndex			RPinky			LShoulder			LElbow			LWrist			LThumb			LIndex			LPinky			
		X1	Y1	Z1	X2	Y2	Z2	X3	Y3	Z3	X4	Y4	Z4	X5	Y5	Z5	X6	Y6	Z6	X7	Y7	Z7	X8	Y8	Z8	X9	Y9	Z9	X10	Y10	Z10	X11	Y11	Z11	X12	Y12	Z12	X13	Y13	Z13	X14	Y14	Z14	X15	Y15	Z15	X16	Y16	Z16	X17	Y17	Z17	X18	Y18	Z18	X19	Y19	Z19	X20	Y20	Z20	X21	Y21	Z21	X22	Y22	Z22	X23	Y23	Z23	X24	Y24	Z24	X25	Y25	Z25	X26	Y26	Z26	X27	Y27	Z27	
0	0.0	0.29538438557970537	0.467583741804663	0.9609688918594227	0.28856705015851447	0.554355443374765	1.4511412490705389	0.28107954970211985	0.5453434577569686	1.9135045099768864	0.21078547957766575	0.34038394607593897	1.9336449181991744	0.2804913277081486	0.3950641125066278	1.9660100440576544	0.25655890991701946	0.6583794771807807	2.0181300391948813	0.07270626317219357	0.5021145310031349	0.961014750857383	0.08220067945573246	0.5642766559060565	1.4547440342806293	0.06175985523681835	0.5627485673521476	1.8890803245821646	0.061860699012317194	0.38216442927814714	1.9437506755318035	0.009299268911682597	0.44059067926487006	1.9630773772819958	0.07333438877984963	0.5856667047767823	1.9389249141640679	0.21592662048623243	0.508144567057919	0.4234259942467899	0.2246237469421088	0.4398682896512429	0.15714284254228525	0.21467336827167413	0.38448473591011423	0.3020966242588315	0.3694511790840937	0.4883790754096066	0.5140335513770449	0.3739898154745955	0.40030291323943074	0.7756422814746101	0.24827943844594386	0.3225702721758296	0.9924824506731874	0.18059099542804516	0.2777654080500849	1.0738480669279027	0.18367523176868197	0.3128905805265627	1.1140321506826814	0.17918260108558812	0.3302515704003639	1.1026085793070908	0.04583021665212307	0.5413951520853635	0.48034198192127436	0.014644560319412895	0.4565438305020458	0.7531702504140423	0.1348802691520042	0.28989403607510766	0.9353735695468438	0.23115970853384518	0.26573317626862825	1.0082228062566378	0.22777528701934885	0.2588204520793788	1.0489535257218763	0.17944351142112833	0.261525088238371	1.0693302268838094
1	0.01694915254237288	0.2981929866188174	0.47631768201318625	0.9559581059527843	0.2934910341635948	0.5657200596385621	1.4611155166081151	0.2857293083989583	0.5571783088259467	1.9208584556265913	0.21099974263309412	0.3406507763644646	1.9334429283800347	0.28472471345535977	0.4058199985508445	1.973135738203756	0.2602307629547261	0.6612424379991088	2.01995259671056	0.07946925477713135	0.513992080936584	0.9604098450054619	0.07773160403055578	0.559304187590921	1.451778924013187	0.06185224624543217	0.5625619048810553	1.8889870460691685	0.060879132285584316	0.3825222397209734	1.948218364297684	0.00938372242716604	0.44038997159084164	1.963030370873196	0.0732816873254687	0.585485242668253	1.9390206783442123	0.21572323985790437	0.5076471939793975	0.41978774444257516	0.2244877907918181	0.44046982118162287	0.15696955117907713	0.2146268590289494	0.38468091905844176	0.30211741571768236	0.3694205892118444	0.4883872763534408	0.5140483169334416	0.3736548913096469	0.40043480511056734	0.7789373774605849	0.24845969384873656	0.3448275295328905	1.000404358882569	0.15771823250518557	0.28945036561583043	1.0862123320148982	0.17086962519322102	0.32187450334296075	1.1087202171585206	0.172519040539582	0.3600602220118489	1.1091540621012201	0.04587742364846147	0.5417746003983143	0.4803243093061844	0.0184273805826946	0.4580699246684271	0.7532742262144267	0.13577862609427252	0.29043840069252447	0.9317075962134548	0.22766146658930964	0.25605827875763765	1.013150260466031	0.21773372211486608	0.25819767280807393	1.0603337365741063	0.19886882324354133	0.30056667788574465	1.0793455083071863
2	0.03389830508474576	0.29917662007558393	0.4752656725918534	0.9556414338204454	0.293685855982631	0.5633291035957837	1.4639677857977245	0.2858084679702009	0.5570546563647075	1.920939193899434	0.21103634412659505	0.340812781134009	1.933528194038965	0.2883865130204354	0.3910243758074779	1.9626351477529629	0.2608411269602289	0.6418593282598584	2.0075770372008215	0.07971649621260245	0.5137207333345357	0.963955879877479	0.07773348897230636	0.5593565287290551	1.4518780423093327	0.06177074545258778	0.5626942272833126	1.889107022519138	0.06090043353336426	0.3826601427934859	1.9484103190115931	0.008096675179159995	0.44090856532967887	1.9678415624125827	0.07186410373561082	0.5853978486133744	1.9446229460720919	0.2156878144311374	0.5074909006473577	0.41978513192767974	0.22109912094132445	0.45200463328519186	0.1574155531418801	0.21454348676750992	0.3845725262503375	0.30203033387081024	0.36943903091931757	0.4883737937198579	0.5140201110039717	0.3739866681339533	0.4004308269007859	0.7756657641054271	0.24845878900084553	0.34497123107641264	1.0004657472153826	0.15355892460283224	0.30445226565734423	1.0898415422629724	0.15887837453259104	0.32264195247743815	1.1069775010757503	0.17303276284194516	0.34744005463077066	1.1064437677107033	0.0459516199112922	0.54192802935873	0.48032477833455023	0.02225180567173038	0.46105389800561275	0.7538421488115072	0.13227479272964587	0.30187541744761076	0.928227761411156	0.22509761430386338	0.26967111624256473	1.0168264194302596	0.22184653960624257	0.26911205522656434	1.063964825476523	0.1821733187862226	0.3375797175331006	1.0972218304615964
3	0.05084745762711865	0.29896478544557376	0.47505906046847485	0.9556343358392638	0.2936470818452266	0.5633553875617738	1.4641887295574525	0.2856814945412581	0.5572153489026842	1.9209303689441066	0.21103932410962256	0.3407640434602547	1.9334171492708934	0.2883971899697539	0.390988671276249	1.9625035886803561	0.25626238665509704	0.658529277506272	2.018205401072723	0.08032356675378781	0.5142520922088909	0.9603019787098669	0.07759172957041309	0.5591129653333548	1.4521283548784654	0.06176068897081377	0.5627204791767191	1.889119260243899	0.060848060793702044	0.38260978330338113	1.94836850301	0.008065521470260165	0.4409119863732765	1.967827904895954	0.07179055019022605	0.5851783466098243	1.944657265752735	0.2156656168187933	0.5074452290068416	0.4197756702572701	0.22098906392897813	0.451816491232293	0.15737653601588666	0.21137352948228064	0.3966245093044303	0.30313046917457154	0.3694443741778207	0.48835234557931784	0.5140301216559627	0.3740352243410111	0.4002366065513729	0.7757119935855333	0.24869738707256597	0.3453258965133692	0.996803154378808	0.14667500961278362	0.3145999394047223	1.093726210094479	0.155201432142461	0.33549839088581607	1.1072418712663632	0.17287544382427272	0.3443522015199011	1.101160336445305	0.045885965843832886	0.5419300514896528	0.4802668983805011	0.022130986090335474	0.4619679853185753	0.750467312801132	0.13872481879769563	0.30038984128150104	0.9238130353742292	0.2167817817926866	0.27855770914210337	1.0278258977698431	0.21367246468492987	0.2925190298760527	1.0803031271709558	0.18569716123857663	0.33934930154284754	1.0982518897415514
